<svg width="1200" height="760" viewBox="0 0 1200 760" fill="none" xmlns="http://www.w3.org/2000/svg">
  <rect width="1200" height="760" rx="36" fill="#EEE5D6"/>
  <rect x="44" y="34" width="1112" height="92" rx="24" fill="#FFF9F1" stroke="#D8D1C6"/>
  <rect x="78" y="64" width="240" height="30" rx="14" fill="#172033"/>
  <rect x="44" y="146" width="1112" height="576" rx="30" fill="#FFF9F1" stroke="#D8D1C6"/>
  <rect x="86" y="186" width="1028" height="500" rx="28" fill="#FFFDF9" stroke="#DED8CE"/>
  <text x="124" y="222" fill="#172033" font-size="30" font-family="Arial" font-weight="700">Submit your entry</text>
  <rect x="124" y="228" width="296" height="24" rx="12" fill="#E8DFD2"/>
  <text x="124" y="302" fill="#4C5768" font-size="16" font-family="Arial" font-weight="700">Name</text>
  <text x="444" y="302" fill="#4C5768" font-size="16" font-family="Arial" font-weight="700">Email</text>
  <text x="764" y="302" fill="#4C5768" font-size="16" font-family="Arial" font-weight="700">Title of work</text>
  <rect x="124" y="268" width="540" height="24" rx="12" fill="#E8DFD2"/>
  <rect x="124" y="316" width="300" height="60" rx="16" fill="#F2EBDE"/>
  <rect x="444" y="316" width="300" height="60" rx="16" fill="#F2EBDE"/>
  <rect x="764" y="316" width="300" height="60" rx="16" fill="#F2EBDE"/>
  <rect x="124" y="396" width="940" height="116" rx="20" fill="#172033"/>
  <text x="150" y="424" fill="#D7E0F3" font-size="16" font-family="Arial" font-weight="700">UPLOAD PREVIEW</text>
  <rect x="150" y="430" width="260" height="44" rx="22" fill="#2A3C5C"/>
  <text x="190" y="458" fill="#FFFFFF" font-size="17" font-family="Arial" font-weight="700">submission.jpg</text>
  <rect x="426" y="430" width="352" height="44" rx="22" fill="#2A3C5C"/>
  <text x="450" y="458" fill="#FFFFFF" font-size="17" font-family="Arial" font-weight="700">drive.google.com/project-link</text>
  <rect x="794" y="430" width="244" height="44" rx="22" fill="#2A3C5C"/>
  <text x="850" y="458" fill="#FFFFFF" font-size="17" font-family="Arial" font-weight="700">4MB max</text>
  <rect x="124" y="532" width="438" height="52" rx="26" fill="#FFFFFF" stroke="#D8D1C6"/>
  <text x="240" y="566" fill="#324058" font-size="20" font-family="Arial" font-weight="700">View submissions</text>
  <rect x="582" y="532" width="230" height="52" rx="26" fill="#FFFFFF" stroke="#D8D1C6"/>
  <text x="658" y="566" fill="#324058" font-size="20" font-family="Arial" font-weight="700">Rules</text>
  <rect x="832" y="532" width="232" height="52" rx="26" fill="#F06A43"/>
  <text x="886" y="566" fill="#FFF9F1" font-size="20" font-family="Arial" font-weight="700">Submit</text>
</svg>
