<svg width="1200" height="760" viewBox="0 0 1200 760" fill="none" xmlns="http://www.w3.org/2000/svg">
  <rect width="1200" height="760" rx="36" fill="#EDE3D1"/>
  <rect x="44" y="34" width="1112" height="92" rx="24" fill="#FFF9F1" stroke="#D7D0C5"/>
  <rect x="78" y="64" width="220" height="30" rx="14" fill="#172033"/>
  <rect x="982" y="56" width="142" height="46" rx="22" fill="#F06A43"/>
  <rect x="44" y="146" width="1112" height="576" rx="30" fill="#FFF9F1" stroke="#D7D0C5"/>
  <rect x="80" y="182" width="520" height="504" rx="28" fill="#172033"/>
  <text x="114" y="216" fill="#D7E0F3" font-size="16" font-family="Arial" font-weight="700">GIVEAWAY</text>
  <rect x="114" y="224" width="306" height="26" rx="13" fill="#364563"/>
  <text x="114" y="296" fill="#FFF9F1" font-size="56" font-family="Arial" font-weight="700">Win a free</text>
  <text x="114" y="352" fill="#FFF9F1" font-size="56" font-family="Arial" font-weight="700">full detail</text>
  <rect x="114" y="264" width="410" height="34" rx="17" fill="#FFFFFF"/>
  <rect x="114" y="312" width="452" height="26" rx="13" fill="#364563"/>
  <rect x="114" y="352" width="392" height="26" rx="13" fill="#364563"/>
  <rect x="114" y="406" width="318" height="42" rx="21" fill="#FFFFFF"/>
  <text x="136" y="434" fill="#33425D" font-size="18" font-family="Arial" font-weight="700">Eligibility: Illinois 18+</text>
  <rect x="114" y="462" width="352" height="42" rx="21" fill="#FFFFFF"/>
  <text x="136" y="490" fill="#33425D" font-size="18" font-family="Arial" font-weight="700">Winner method: Random draw</text>
  <rect x="114" y="518" width="292" height="42" rx="21" fill="#FFFFFF"/>
  <text x="136" y="546" fill="#33425D" font-size="18" font-family="Arial" font-weight="700">Ends: May 31, 2026</text>
  <rect x="626" y="182" width="494" height="242" rx="28" fill="#FFFDF9" stroke="#DED7CD"/>
  <text x="656" y="216" fill="#4C5768" font-size="16" font-family="Arial" font-weight="700">ENTER TO WIN</text>
  <rect x="656" y="216" width="310" height="22" rx="11" fill="#E8DFD2"/>
  <rect x="656" y="250" width="424" height="72" rx="18" fill="#F2EBDE"/>
  <text x="682" y="293" fill="#33425D" font-size="25" font-family="Arial">name@example.com</text>
  <rect x="656" y="338" width="286" height="52" rx="26" fill="#F06A43"/>
  <text x="756" y="371" fill="#FFF9F1" font-size="22" font-family="Arial" font-weight="700">Enter now</text>
  <rect x="626" y="444" width="494" height="242" rx="28" fill="#FFFDF9" stroke="#DED7CD"/>
  <text x="656" y="478" fill="#4C5768" font-size="16" font-family="Arial" font-weight="700">OFFICIAL RULES</text>
  <rect x="656" y="478" width="424" height="28" rx="14" fill="#E8DFD2"/>
  <rect x="656" y="522" width="370" height="28" rx="14" fill="#E8DFD2"/>
  <rect x="656" y="566" width="276" height="28" rx="14" fill="#E8DFD2"/>
</svg>
