<svg width="1200" height="760" viewBox="0 0 1200 760" fill="none" xmlns="http://www.w3.org/2000/svg">
  <rect width="1200" height="760" rx="36" fill="#F7F1E8"/>
  <rect x="34" y="28" width="1132" height="72" rx="18" fill="#FFF9F1" stroke="#D7D0C5"/>
  <circle cx="68" cy="64" r="10" fill="#F06A43"/>
  <text x="88" y="70" fill="#172033" font-size="24" font-family="Arial" font-weight="700">PrizePilot Studio</text>
  <rect x="842" y="44" width="140" height="40" rx="20" fill="#FFFFFF" stroke="#D7D0C5"/>
  <text x="870" y="69" fill="#324058" font-size="18" font-family="Arial">Draft</text>
  <rect x="996" y="44" width="148" height="40" rx="20" fill="#F06A43"/>
  <text x="1022" y="69" fill="#FFF9F1" font-size="18" font-family="Arial" font-weight="700">Save</text>

  <rect x="34" y="116" width="286" height="610" rx="24" fill="#FFF9F1" stroke="#D7D0C5"/>
  <text x="62" y="152" fill="#4C5768" font-size="16" font-family="Arial" font-weight="700">TOOLS</text>
  <rect x="56" y="168" width="242" height="46" rx="12" fill="#EDE5D9"/>
  <text x="78" y="197" fill="#172033" font-size="18" font-family="Arial" font-weight="700">Campaign setup</text>
  <rect x="56" y="224" width="242" height="46" rx="12" fill="#DCEEEA"/>
  <text x="78" y="253" fill="#172033" font-size="18" font-family="Arial" font-weight="700">Rules + compliance</text>
  <rect x="56" y="280" width="242" height="46" rx="12" fill="#EDE5D9"/>
  <text x="78" y="309" fill="#172033" font-size="18" font-family="Arial" font-weight="700">Branding</text>
  <rect x="56" y="336" width="242" height="46" rx="12" fill="#EDE5D9"/>
  <text x="78" y="365" fill="#172033" font-size="18" font-family="Arial" font-weight="700">Launch settings</text>
  <rect x="56" y="404" width="242" height="296" rx="20" fill="#172033"/>
  <text x="78" y="438" fill="#FFF9F1" font-size="18" font-family="Arial" font-weight="700">Current plan</text>
  <text x="78" y="470" fill="#F1B74C" font-size="34" font-family="Arial" font-weight="700">PRO</text>
  <text x="78" y="510" fill="#D4DCEC" font-size="16" font-family="Arial">Unlimited campaigns</text>
  <text x="78" y="536" fill="#D4DCEC" font-size="16" font-family="Arial">Custom branding</text>
  <text x="78" y="562" fill="#D4DCEC" font-size="16" font-family="Arial">Judging dashboard</text>

  <rect x="344" y="116" width="822" height="610" rx="24" fill="#FFF9F1" stroke="#D7D0C5"/>
  <text x="378" y="158" fill="#172033" font-size="30" font-family="Arial" font-weight="700">Create campaign</text>
  <rect x="378" y="176" width="756" height="2" fill="#E6DDCF"/>

  <rect x="378" y="198" width="364" height="164" rx="16" fill="#FFFDF9" stroke="#DDD6CC"/>
  <text x="402" y="230" fill="#4C5768" font-size="14" font-family="Arial" font-weight="700">CAMPAIGN TITLE</text>
  <rect x="402" y="242" width="316" height="38" rx="10" fill="#F3ECE1"/>
  <text x="418" y="266" fill="#324058" font-size="18" font-family="Arial">Win a free full detail</text>
  <text x="402" y="304" fill="#4C5768" font-size="14" font-family="Arial" font-weight="700">TYPE</text>
  <rect x="402" y="316" width="156" height="30" rx="15" fill="#172033"/>
  <text x="434" y="336" fill="#FFF9F1" font-size="15" font-family="Arial" font-weight="700">Giveaway</text>
  <rect x="570" y="316" width="148" height="30" rx="15" fill="#ECE3D6"/>
  <text x="613" y="336" fill="#324058" font-size="15" font-family="Arial">Contest</text>

  <rect x="756" y="198" width="378" height="164" rx="16" fill="#FFFDF9" stroke="#DDD6CC"/>
  <text x="780" y="230" fill="#4C5768" font-size="14" font-family="Arial" font-weight="700">ELIGIBILITY</text>
  <rect x="780" y="242" width="330" height="38" rx="10" fill="#F3ECE1"/>
  <text x="796" y="266" fill="#324058" font-size="18" font-family="Arial">Illinois residents, 18+</text>
  <text x="780" y="304" fill="#4C5768" font-size="14" font-family="Arial" font-weight="700">END DATE + TIME</text>
  <rect x="780" y="316" width="156" height="30" rx="15" fill="#F3ECE1"/>
  <rect x="954" y="316" width="156" height="30" rx="15" fill="#F3ECE1"/>
  <text x="808" y="336" fill="#324058" font-size="15" font-family="Arial">May 31, 2026</text>
  <text x="1000" y="336" fill="#324058" font-size="15" font-family="Arial">5:00 PM</text>

  <rect x="378" y="378" width="756" height="326" rx="16" fill="#FFFDF9" stroke="#DDD6CC"/>
  <text x="402" y="412" fill="#4C5768" font-size="14" font-family="Arial" font-weight="700">GENERATED OUTPUT</text>
  <rect x="402" y="426" width="200" height="34" rx="10" fill="#ECE3D6"/>
  <text x="460" y="448" fill="#324058" font-size="15" font-family="Arial" font-weight="700">Rules</text>
  <rect x="612" y="426" width="200" height="34" rx="10" fill="#ECE3D6"/>
  <text x="663" y="448" fill="#324058" font-size="15" font-family="Arial" font-weight="700">Landing</text>
  <rect x="822" y="426" width="200" height="34" rx="10" fill="#ECE3D6"/>
  <text x="882" y="448" fill="#324058" font-size="15" font-family="Arial" font-weight="700">Assets</text>
  <rect x="402" y="476" width="706" height="206" rx="16" fill="#FEFBF6" stroke="#E4DCCF"/>
  <rect x="424" y="498" width="328" height="162" rx="14" fill="#172033"/>
  <text x="446" y="526" fill="#FFF9F1" font-size="18" font-family="Arial" font-weight="700">Landing preview</text>
  <rect x="780" y="498" width="306" height="50" rx="14" fill="#F3ECE1"/>
  <rect x="780" y="560" width="306" height="50" rx="14" fill="#F3ECE1"/>
  <rect x="780" y="622" width="306" height="38" rx="19" fill="#F06A43"/>
  <text x="900" y="647" fill="#FFF9F1" font-size="18" font-family="Arial" font-weight="700">Publish</text>
</svg>
